<?xml version="1.0" encoding="utf-8"?>
<!-- Generator: Adobe Illustrator 23.0.3, SVG Export Plug-In . SVG Version: 6.00 Build 0)  -->
<svg version="1.2" baseProfile="tiny" id="Layer_1" xmlns="http://www.w3.org/2000/svg" xmlns:xlink="http://www.w3.org/1999/xlink"
	 x="0px" y="0px" viewBox="0 0 80 80" xml:space="preserve">
<rect x="101.04" y="-0.16" fill="#FFFFFF" width="80" height="80"/>
<g>
	<g>
		<path fill="#FFFFFF" d="M40,64.34c-13.51,0-24.5-10.99-24.5-24.5s10.99-24.5,24.5-24.5c13.51,0,24.5,10.99,24.5,24.5
			S53.51,64.34,40,64.34z"/>
		<path d="M40,15.84c13.23,0,24,10.77,24,24s-10.77,24-24,24s-24-10.77-24-24S26.77,15.84,40,15.84 M40,14.84
			c-13.81,0-25,11.19-25,25s11.19,25,25,25s25-11.19,25-25S53.81,14.84,40,14.84L40,14.84z"/>
	</g>
	<polyline fill-rule="evenodd" fill="none" stroke="#000000" stroke-miterlimit="10" points="42.62,47.88 34.62,39.88 42.7,31.8 	
		"/>
</g>
</svg>
