<svg width="152" height="23" viewBox="0 0 152 23" fill="none" xmlns="http://www.w3.org/2000/svg">
<path d="M28.8365 14.056H40.6381L41.9823 9.6136H28.8365V5.63092H42.811L44.161 1.16211H24.3677V17.8513C24.3677 20.3727 26.4117 22.4168 28.9331 22.4168H42.9164L44.2665 17.948H28.8365V14.0531V14.056Z" fill="white"/>
<path d="M15.8897 9.56089H4.44245V1.16504H0V22.3992H4.44245V14.0033H15.8897V22.3992H20.3322V1.16504H15.8897V9.56089Z" fill="white"/>
<path d="M72.4762 1.18262V5.62507H83.5838L71.5596 22.3201H90.7819L92.126 17.8777H80.2365L92.2607 1.18262H72.4762Z" fill="white"/>
<path d="M68.5139 8.67651C68.549 6.72616 67.8023 4.86953 66.4113 3.45216C64.9968 2.01137 63.0348 1.18555 61.0288 1.18555H48.3105V22.4197L52.712 22.4051V15.8951V11.4527V5.63092H61.0288C61.8487 5.63092 62.657 5.97355 63.2398 6.56803C63.7903 7.13029 64.0861 7.85069 64.0714 8.59744C64.0421 10.17 62.7361 11.4527 61.1606 11.4527H54.062L52.7091 15.8951H60.8677L65.0085 22.4051H70.0162L65.1257 14.715C67.1199 13.4264 68.467 11.2038 68.5139 8.67944V8.67651Z" fill="white"/>
<path d="M96.46 22.3992H100.902V16.7531C100.018 15.2772 99.4938 13.4616 99.4938 11.4995C99.4938 9.53746 100.018 7.72183 100.902 6.24589V1.16504H96.46V22.4021V22.3992ZM98.7939 7.19178V15.8073C97.9095 14.5978 97.3853 13.1072 97.3853 11.4995C97.3853 9.8918 97.9095 8.40122 98.7939 7.19178Z" fill="white"/>
<path d="M146.815 1.16504V18.8118L133.61 1.16504H129.168V6.26346C130.047 7.73647 130.565 9.54332 130.565 11.4995C130.565 13.4557 130.044 15.2626 129.168 16.7356V22.3992H133.61V7.101L145.055 22.3992H151.257V1.16504H146.815ZM131.259 15.8073V7.19178C132.143 8.40122 132.667 9.88887 132.667 11.4995C132.667 13.1102 132.143 14.5978 131.259 15.8073Z" fill="white"/>
<path d="M126.283 9.18067C125.947 7.5466 125.267 6.03259 124.316 4.72944C122.222 1.86542 118.839 0 115.027 0C111.214 0 107.831 1.86542 105.74 4.72944C104.789 6.03259 104.109 7.54367 103.772 9.18067V4.72944C102.381 6.63 101.559 8.96982 101.559 11.5C101.559 14.0302 102.381 16.37 103.772 18.2706V13.8193C104.109 15.4534 104.789 16.9674 105.74 18.2706C107.834 21.1346 111.217 23 115.027 23C118.836 23 122.222 21.1346 124.316 18.2706C125.267 16.9674 125.947 15.4563 126.283 13.8193V18.2706C127.674 16.37 128.497 14.0302 128.497 11.5C128.497 8.96982 127.674 6.63 126.283 4.72944V9.18067ZM115.027 18.5576C111.135 18.5576 107.969 15.3919 107.969 11.5C107.969 7.6081 111.135 4.44245 115.027 4.44245C118.918 4.44245 122.084 7.6081 122.084 11.5C122.084 15.3919 118.918 18.5576 115.027 18.5576Z" fill="white"/>
</svg>
