<svg width="32" height="32" viewBox="0 0 32 32" fill="none" xmlns="http://www.w3.org/2000/svg">
<path d="M27.9998 28L22.2091 22.2093M22.2091 22.2093C23.1996 21.2188 23.9854 20.0429 24.5214 18.7487C25.0575 17.4545 25.3334 16.0674 25.3334 14.6666C25.3334 13.2658 25.0575 11.8787 24.5214 10.5846C23.9854 9.2904 23.1996 8.11449 22.2091 7.12397C21.2186 6.13345 20.0427 5.34773 18.7485 4.81167C17.4543 4.2756 16.0673 3.99969 14.6665 3.99969C13.2657 3.99969 11.8786 4.2756 10.5844 4.81167C9.29022 5.34773 8.1143 6.13345 7.12379 7.12397C5.12335 9.12441 3.99951 11.8376 3.99951 14.6666C3.99951 17.4957 5.12335 20.2089 7.12379 22.2093C9.12423 24.2097 11.8374 25.3336 14.6665 25.3336C17.4955 25.3336 20.2087 24.2097 22.2091 22.2093Z" stroke="white" stroke-width="2" stroke-linecap="round" stroke-linejoin="round"/>
</svg>
