<svg xmlns="http://www.w3.org/2000/svg" width="130" height="19.768" viewBox="0 0 130 19.768">
    <g data-name="그룹 11724">
        <path data-name="패스 19117" d="M332.706 337.345h-11.968a3.915 3.915 0 0 1-3.907-3.924v-14.349h16.941l-1.156 3.841h-11.961V333.5h13.207z" transform="translate(-295.873 -318.075)" style="fill:#fff"/>
        <path data-name="사각형 5884" transform="translate(3.5 8.226)" style="fill:#fff" d="M0 0h12.001v3.803H0z"/>
        <path data-name="사각형 5885" transform="translate(0 .997)" style="fill:#fff" d="M0 0h3.803v18.258H0z"/>
        <path data-name="사각형 5886" transform="translate(13.599 .997)" style="fill:#fff" d="M0 0h3.803v18.258H0z"/>
        <path data-name="패스 19118" d="M330.929 357.783h-13.881v-3.8h15.031z" transform="translate(-296.047 -345.708)" style="fill:#fff"/>
        <path data-name="패스 19119" d="M528.246 337.317h-16.453l10.292-14.355h-9.508v-3.82h16.934L519.219 333.5H529.4z" transform="translate(-450.251 -318.13)" style="fill:#fff"/>
        <path data-name="패스 19120" d="M470.4 377.534h-4.287l-4.865-7.649h4.286z" transform="translate(-410.248 -358.279)" style="fill:#fff"/>
        <path data-name="패스 19121" d="M431.226 321.093a6.486 6.486 0 0 0-4.608-1.95h-10.887V337.4l3.767-.013v-14.42h7.12a2.667 2.667 0 0 1 1.893.806 2.425 2.425 0 0 1 .712 1.745 2.508 2.508 0 0 1-2.491 2.454h-6.077l-1.157 3.82h7.234a6.339 6.339 0 0 0 6.293-6.2 6.226 6.226 0 0 0-1.8-4.493" transform="translate(-374.186 -318.131)" style="fill:#fff"/>
        <path data-name="패스 19122" d="M618.479 319.072h-3.8v18.258h3.8v-4.855a9.069 9.069 0 0 1 0-9.034zm-1.806 12.59a6.295 6.295 0 0 1 0-7.408z" transform="translate(-531.761 -318.075)" style="fill:#fff"/>
        <path data-name="패스 19123" d="M764.908 319.072v15.172l-11.3-15.172h-3.8v4.384a9.067 9.067 0 0 1 0 9v4.87h3.8v-13.148l9.8 13.152h5.308v-18.258zm-13.315 12.59v-7.408a6.295 6.295 0 0 1 0 7.408" transform="translate(-638.711 -318.075)" style="fill:#fff"/>
        <path data-name="패스 19124" d="M658.79 324.142a9.855 9.855 0 0 0-1.894-5.819v3.825a9.831 9.831 0 0 0-19.267 0v-3.825a9.887 9.887 0 0 0 0 11.639v-3.826a9.831 9.831 0 0 0 19.267 0v3.825a9.855 9.855 0 0 0 1.894-5.819m-11.528 6.065a6.065 6.065 0 1 1 6.04-6.065 6.06 6.06 0 0 1-6.04 6.065" transform="translate(-548.372 -314.258)" style="fill:#fff"/>
    </g>
</svg>
